<?xml version="1.0" encoding="UTF-8" standalone="no"?>
<!DOCTYPE svg PUBLIC "-//W3C//DTD SVG 1.1//EN" "http://www.w3.org/Graphics/SVG/1.1/DTD/svg11.dtd">
<svg width="30%" height="30%" viewBox="0 0 4500 4500" version="1.1" xmlns="http://www.w3.org/2000/svg" xmlns:xlink="http://www.w3.org/1999/xlink" xml:space="preserve" xmlns:serif="http://www.serif.com/" style="fill-rule:evenodd;clip-rule:evenodd;stroke-linejoin:round;stroke-miterlimit:2;">
    <g transform="matrix(1,0,0,1,-5250,-8250)">
        <g id="物理部展_ロゴ_パス" transform="matrix(1.118276,0,0,1.147056,2556.632948,5485.73957)">
            <rect x="2408.5" y="2409.874" width="4024.052" height="3923.086" style="fill:none;"/>
            <clipPath id="_clip1">
                <rect x="2408.5" y="2409.874" width="4024.052" height="3923.086"/>
            </clipPath>
            <g clip-path="url(#_clip1)">
                <g id="中央">
                    <path d="M4421.86,5037.905L4419.192,5037.905C4247.64,4768.115 4013.618,4539.965 3736.884,4372.717L3736.884,4370.116C4013.618,4202.868 4247.64,3974.718 4419.192,3704.928L4421.86,3704.928C4593.413,3974.718 4827.435,4202.868 5104.168,4370.116L5104.168,4372.717C4827.435,4539.965 4593.413,4768.115 4421.86,5037.905Z" style="fill:rgb(0,113,188);"/>
                    <path d="M4421.86,5037.905L4419.192,5037.905C4247.64,4768.115 4013.618,4539.965 3736.884,4372.717L3736.884,4370.116C4013.618,4202.868 4247.64,3974.718 4419.192,3704.928L4421.86,3704.928C4593.413,3974.718 4827.435,4202.868 5104.168,4370.116L5104.168,4372.717C4827.435,4539.965 4593.413,4768.115 4421.86,5037.905ZM3769.759,4371.417C4031.229,4534.005 4253.753,4750.946 4420.526,5005.856C4587.299,4750.946 4809.823,4534.005 5071.294,4371.417C4809.823,4208.828 4587.299,3991.887 4420.526,3736.977C4253.753,3991.887 4031.229,4208.828 3769.759,4371.417Z" style="fill:rgb(0,113,188);"/>
                </g>
                <g>
                    <g transform="matrix(0.894234,0,0,0.871797,-5841.795092,-2820.043146)">
                        <path d="M11158.37,6516.248C11071.542,7066.236 10721.072,7529.067 10240.631,7771.074L10240.631,7714.868C10693.154,7478.173 11022.764,7038.055 11107.725,6516.248L11158.37,6516.248Z"/>
                    </g>
                    <g transform="matrix(0.894234,0,0,0.871797,-5841.795092,-2820.043146)">
                        <path d="M11334.293,6516.248L11384.786,6516.248C11384.625,6517.411 11384.462,6518.574 11384.298,6519.736C11381.91,6536.694 11379.3,6553.581 11376.472,6570.395C11266.887,7221.978 10829.837,7763.044 10240.631,8018.265L10240.631,7963.636C10804.507,7711.582 11221.658,7189.436 11327.165,6562.102C11329.725,6546.879 11332.102,6531.593 11334.293,6516.248Z"/>
                    </g>
                    <g transform="matrix(1.124313,0,0,0.871797,572.537307,309.714929)">
                        <path d="M2658,2926.24L3329.817,2926.24C3327.942,2942.977 3325.894,2959.645 3323.674,2976.24L2658,2976.24L2658,2926.24Z"/>
                    </g>
                    <g transform="matrix(0.894234,0,0,0.871797,-5841.795092,-2820.043146)">
                        <path d="M10540.286,6249.008L10590.286,6249.008C10590.286,6568.082 10455.874,6856.009 10240.631,7059.207L10240.631,6988.969C10426.089,6797.4 10540.286,6536.435 10540.286,6249.008Z"/>
                    </g>
                    <g transform="matrix(0.894234,0,0,0.871797,255.184879,309.714929)">
                        <rect x="3015.263" y="2659" width="50" height="2000"/>
                    </g>
                    <g transform="matrix(0.894234,0,0,0.871797,-5841.795092,-2820.043146)">
                        <path d="M10880.316,6516.248L10931.182,6516.248C10805.243,7205.262 10201.262,7728.2 9476.105,7728.2L9476.105,7678.2C10173.577,7678.2 10755.028,7177.503 10880.316,6516.248Z"/>
                    </g>
                    <g transform="matrix(0.894234,0,0,0.871797,255.184879,309.714929)">
                        <rect x="2658" y="3016.25" width="764.526" height="50"/>
                    </g>
                    <g transform="matrix(0.894234,0,0,1.576209,277.540725,-1832.577657)">
                        <rect x="2633" y="2895.13" width="50" height="292.24"/>
                    </g>
                </g>
                <g>
                    <g transform="matrix(0.723804,0,0,0.871797,1179.345255,375.099694)">
                        <rect x="4658" y="2634.068" width="764.526" height="50"/>
                    </g>
                    <g transform="matrix(0.723804,0,0,0.871797,1179.345255,848.2378)">
                        <rect x="4658" y="2634.068" width="764.526" height="50"/>
                    </g>
                    <g transform="matrix(0.739724,0,0,0.871797,1093.017329,1364.96575)">
                        <rect x="4658" y="2634.068" width="764.526" height="50"/>
                    </g>
                    <g transform="matrix(0.894232,0.000251,0.000258,0.826177,325.434513,486.117014)">
                        <path d="M5015.25,2658.93L5065.25,2659.206L5058.444,3894.638L5008.445,3894.362L5015.25,2658.93Z"/>
                    </g>
                    <g transform="matrix(1.231075,0,0,1.200187,-1755.934338,-663.167685)">
                        <path d="M6021.18,2742.114C6221.624,2742.114 6384.36,2904.85 6384.36,3105.294C6384.36,3305.739 6221.624,3468.474 6021.18,3468.474C5820.735,3468.474 5658,3305.739 5658,3105.294C5658,2904.85 5820.735,2742.114 6021.18,2742.114ZM6021.18,2778.434C5840.781,2778.434 5694.319,2924.895 5694.319,3105.294C5694.319,3285.693 5840.781,3432.155 6021.18,3432.155C6201.579,3432.155 6348.04,3285.693 6348.04,3105.294C6348.04,2924.895 6201.579,2778.434 6021.18,2778.434Z"/>
                    </g>
                    <g transform="matrix(0.894234,0,0,0.871797,255.184879,309.714929)">
                        <path d="M5657.991,3184.051L5657.993,3134.051L6422.535,3134.068L6422.533,3184.068L5657.991,3184.051Z"/>
                    </g>
                    <g transform="matrix(0.894234,0,0,0.871797,255.184879,309.714929)">
                        <rect x="6015.263" y="2776.818" width="50" height="764.5"/>
                    </g>
                    <g transform="matrix(0.894234,0,0,0.871797,254.769525,412.615257)">
                        <rect x="5658.464" y="4016.002" width="763.597" height="50"/>
                    </g>
                    <g transform="matrix(0.894234,0,0,0.950726,255.184879,-101.603464)">
                        <rect x="6015.263" y="3850.025" width="50" height="808.975"/>
                    </g>
                    <g transform="matrix(1.10484,0,0,0.871797,-1016.933122,410.805901)">
                        <rect x="5540.28" y="4443.043" width="999.966" height="50"/>
                    </g>
                </g>
                <g>
                    <g transform="matrix(0.894234,0,0,0.871797,255.184879,309.714929)">
                        <path d="M4550.684,5588.1C4392.563,5309.453 4174.687,5069.076 3914.535,4884.437C3907.545,4879.476 3900.525,4874.555 3893.474,4869.675L3893.474,4809.189C3910.304,4820.458 3926.972,4831.951 3943.474,4843.663C4217.229,5037.956 4445.216,5292.587 4607.98,5588.1C4607.987,5588.112 4607.993,5588.124 4608,5588.137L4608,5638.1L4578.196,5638.1C4569.238,5621.301 4560.066,5604.633 4550.684,5588.1Z"/>
                    </g>
                    <g transform="matrix(0.894234,0,0,0.871797,-5841.795092,-2820.043146)">
                        <path d="M9721.259,9099.008C9647.374,9030.499 9601.105,8932.614 9601.105,8824.008C9601.105,8715.402 9647.374,8617.518 9721.259,8549.008L9802.92,8549.008C9711.726,8606.595 9651.105,8708.278 9651.105,8824.008C9651.105,8939.739 9711.726,9041.422 9802.92,9099.008L9721.259,9099.008Z"/>
                    </g>
                    <g transform="matrix(0.894234,0,0,0.871797,-5841.795092,-2820.043146)">
                        <path d="M10149.289,8549.008L10230.95,8549.008C10304.835,8617.518 10351.105,8715.402 10351.105,8824.008C10351.105,8932.614 10304.835,9030.499 10230.95,9099.008L10149.289,9099.008C10240.483,9041.422 10301.105,8939.739 10301.105,8824.008C10301.105,8708.278 10240.483,8606.595 10149.289,8549.008Z"/>
                    </g>
                    <g transform="matrix(0.894234,0,0,0.871797,44.616051,309.714929)">
                        <path d="M3393.474,5659C3669.432,5659 3893.474,5883.042 3893.474,6159C3893.474,6434.958 3669.432,6659 3393.474,6659C3117.516,6659 2893.474,6434.958 2893.474,6159C2893.474,5883.042 3117.516,5659 3393.474,5659ZM3393.474,5709C3145.112,5709 2943.474,5910.638 2943.474,6159C2943.474,6407.362 3145.112,6609 3393.474,6609C3641.836,6609 3843.474,6407.362 3843.474,6159C3843.474,5910.638 3641.836,5709 3393.474,5709Z"/>
                    </g>
                    <g transform="matrix(0.489284,0,0,0.477007,1409.343394,2131.379138)">
                        <path d="M3412.81,4787.407L3549.883,4924.48L3412.81,5061.553L3275.737,4924.48L3412.81,4787.407Z"/>
                    </g>
                    <g transform="matrix(6.012821,0,0,0.293974,-16764.596091,3552.160597)">
                        <rect x="3225.882" y="5455.841" width="148.721" height="148.278"/>
                    </g>
                    <g transform="matrix(6.012821,0,0,0.293974,-16764.596091,2941.902793)">
                        <rect x="3225.882" y="5455.841" width="148.721" height="148.278"/>
                    </g>
                    <g transform="matrix(3.687945,0,0,16.370145,-11231.376249,-78346.589314)">
                        <path d="M4070.817,5062.814L4070.817,5159.49L4058.694,5159.49L4058.694,5060.978C4062.775,5061.578 4066.816,5062.19 4070.817,5062.814Z"/>
                    </g>
                    <g transform="matrix(2.312959,0,0,0.595561,-6224.487179,1759.264507)">
                        <rect x="4390.315" y="5746.073" width="192.689" height="73.191"/>
                    </g>
                    <g transform="matrix(0.894234,0,0,0.871797,255.184879,988.7669)">
                        <path d="M4550.684,5588.1C4392.563,5309.453 4174.687,5069.076 3914.535,4884.437C3907.545,4879.476 3900.525,4874.555 3893.474,4869.675L3893.474,4809.189C3910.304,4820.458 3926.972,4831.951 3943.474,4843.663C4217.229,5037.956 4445.216,5292.587 4607.98,5588.1C4607.987,5588.112 4607.993,5588.124 4608,5588.137L4608,5638.1L4578.196,5638.1C4569.238,5621.301 4560.066,5604.633 4550.684,5588.1Z"/>
                    </g>
                    <g transform="matrix(1.541973,0,0,0.595561,-2691.053293,2438.316478)">
                        <rect x="4390.315" y="5746.073" width="192.689" height="73.191"/>
                    </g>
                </g>
                <g>
                    <g transform="matrix(2.583388,0,0,2.518569,-10099.366273,-10190.103084)">
                        <path d="M6309.979,6251.474L6312.781,6251.474L6312.781,6268.764C6311.883,6268.764 6310.986,6268.77 6310.091,6268.781C6225.503,6269.87 6153.188,6322.249 6122.847,6396.216C6120.587,6401.724 6118.561,6407.353 6116.779,6413.088C6111.777,6409.643 6106.87,6406.07 6102.062,6402.374C6104.011,6396.643 6106.187,6391.017 6108.58,6385.506C6131.373,6333.015 6173.822,6291.002 6226.615,6268.781C6252.311,6257.966 6280.457,6251.839 6309.979,6251.474Z"/>
                    </g>
                    <g transform="matrix(6.117081,0,0,0.734118,-28866.445444,1260.99979)">
                        <rect x="5518.724" y="4631.506" width="215.292" height="59.377"/>
                    </g>
                    <g transform="matrix(7.891802,0,0,0.734118,-39042.728035,2154.591575)">
                        <rect x="5518.724" y="4631.506" width="215.292" height="59.377"/>
                    </g>
                    <g transform="matrix(6.117081,0,0,0.734118,-29057.487403,1637.833984)">
                        <rect x="5518.724" y="4631.506" width="215.292" height="59.377"/>
                    </g>
                    <g transform="matrix(3.05854,0,0,0.734118,-12178.247943,2671.349165)">
                        <rect x="5518.724" y="4631.506" width="215.292" height="59.377"/>
                    </g>
                    <g transform="matrix(0,1.345401,-0.753011,0,9696.571012,-3009.890815)">
                        <rect x="5518.724" y="4631.506" width="215.292" height="59.377"/>
                    </g>
                    <g transform="matrix(3.997316,0,0,3.897021,-19435.250833,-17617.130571)">
                        <path d="M5979.134,5813.483C5982.755,5807.782 5986.484,5802.157 5990.319,5796.611C6028.228,5741.787 6076.466,5694.641 6132.209,5657.994C6134.471,5656.507 6136.745,5655.037 6139.032,5653.585L6160.5,5653.585C6154.35,5657.188 6148.283,5660.918 6142.302,5664.77C6081.439,5703.974 6029.523,5755.89 5990.319,5816.753C5986.467,5822.734 5982.737,5828.801 5979.134,5834.951L5979.134,5813.483Z"/>
                    </g>
                    <g transform="matrix(1.7768,0,0,0.259235,-4822.000693,3151.72698)">
                        <path d="M5586.674,4873.102L6208.35,4873.102L6208.35,5041.25L5571.325,5041.25L5571.325,4939.378C5576.414,4917.025 5581.53,4894.932 5586.674,4873.102Z"/>
                    </g>
                    <g transform="matrix(1.7768,0,0,0.259235,-4822.000693,3151.72698)">
                        <path d="M5586.674,4873.102L6208.35,4873.102L6208.35,5041.25L5571.325,5041.25L5571.325,4939.378C5576.414,4917.025 5581.53,4894.932 5586.674,4873.102Z"/>
                    </g>
                    <g transform="matrix(0,1.807946,-0.265907,0,5805.741313,-5109.349805)">
                        <path d="M6208.35,5041.25L5612.713,5041.25C5600.425,4986.819 5588.301,4930.755 5576.346,4873.102L6208.35,4873.102L6208.35,5041.25Z"/>
                    </g>
                    <g transform="matrix(0.936864,0,0,3.717402,76.811663,-15475.914168)">
                        <rect x="5185.275" y="5473.5" width="47.725" height="334.569"/>
                    </g>
                    <g transform="matrix(0.936864,0,0,2.107711,881.622132,-6665.272916)">
                        <rect x="5185.275" y="5473.5" width="47.725" height="334.569"/>
                    </g>
                    <g transform="matrix(2.167412,0,0,2.11303,-8301.923872,-6597.401941)">
                        <path d="M6422.496,5913.263C6378.307,5874.332 6342.506,5826.1 6318.166,5771.642C6315.135,5764.861 6312.281,5757.982 6309.611,5751.013L6331.793,5751.013C6334.63,5757.992 6337.663,5764.871 6340.885,5771.642C6361.175,5814.294 6388.945,5852.711 6422.496,5885.194C6431.783,5894.186 6441.514,5902.723 6451.652,5910.77C6457.2,5915.174 6462.871,5919.431 6468.657,5923.535C6532.614,5968.897 6610.738,5995.571 6695.043,5995.571L6695.043,6016.2C6608.348,6016.2 6527.862,5989.402 6461.424,5943.645C6455.462,5939.539 6449.613,5935.28 6443.883,5930.874C6436.556,5925.24 6429.423,5919.366 6422.496,5913.263Z"/>
                    </g>
                </g>
            </g>
        </g>
    </g>
</svg>
