<?xml version="1.0" encoding="UTF-8" standalone="no"?>
<!-- Created with Inkscape (http://www.inkscape.org/) -->

<svg
   width="400"
   height="400"
   viewBox="0 0 105.83333 105.83333"
   version="1.1"
   id="svg1"
   inkscape:export-filename="logo.png"
   inkscape:export-xdpi="96"
   inkscape:export-ydpi="96"
   inkscape:version="1.3.2 (091e20e, 2023-11-25)"
   sodipodi:docname="general.svg"
   xmlns:inkscape="http://www.inkscape.org/namespaces/inkscape"
   xmlns:sodipodi="http://sodipodi.sourceforge.net/DTD/sodipodi-0.dtd"
   xmlns:xlink="http://www.w3.org/1999/xlink"
   xmlns="http://www.w3.org/2000/svg"
   xmlns:svg="http://www.w3.org/2000/svg">
  <sodipodi:namedview
     id="namedview1"
     pagecolor="#505050"
     bordercolor="#eeeeee"
     borderopacity="1"
     inkscape:showpageshadow="0"
     inkscape:pageopacity="0"
     inkscape:pagecheckerboard="0"
     inkscape:deskcolor="#505050"
     inkscape:document-units="px"
     showguides="false"
     showgrid="false"
     inkscape:zoom="2.4653545"
     inkscape:cx="75.64835"
     inkscape:cy="204.23026"
     inkscape:window-width="2560"
     inkscape:window-height="1514"
     inkscape:window-x="0"
     inkscape:window-y="61"
     inkscape:window-maximized="0"
     inkscape:current-layer="layer1">
    <sodipodi:guide
       position="50.270831,26.458334"
       orientation="0,-1"
       id="guide4"
       inkscape:locked="false" />
    <inkscape:grid
       id="grid4"
       units="px"
       originx="0"
       originy="0"
       spacingx="0.26458333"
       spacingy="0.26458333"
       empcolor="#0099e5"
       empopacity="0.30196078"
       color="#0099e5"
       opacity="0.14901961"
       empspacing="5"
       dotted="false"
       gridanglex="30"
       gridanglez="30"
       visible="false" />
    <sodipodi:guide
       position="39.687498,52.916666"
       orientation="0,-1"
       id="guide5"
       inkscape:locked="false" />
    <sodipodi:guide
       position="47.624997,79.374998"
       orientation="0,-1"
       id="guide6"
       inkscape:locked="false" />
    <sodipodi:guide
       position="13.229166,109.80208"
       orientation="1,0"
       id="guide7"
       inkscape:locked="false" />
  </sodipodi:namedview>
  <defs
     id="defs1">
    <linearGradient
       id="linearGradient23"
       inkscape:collect="always">
      <stop
         style="stop-color:#ffffff;stop-opacity:1;"
         offset="0"
         id="stop23" />
      <stop
         style="stop-color:#ffffff;stop-opacity:0;"
         offset="1"
         id="stop24" />
    </linearGradient>
    <linearGradient
       id="linearGradient18"
       inkscape:collect="always">
      <stop
         style="stop-color:#ff3500;stop-opacity:1;"
         offset="0"
         id="stop17" />
      <stop
         style="stop-color:#ffbe00;stop-opacity:0.49585062;"
         offset="1"
         id="stop18" />
    </linearGradient>
    <linearGradient
       id="linearGradient16"
       inkscape:collect="always">
      <stop
         style="stop-color:#ff3500;stop-opacity:1;"
         offset="0"
         id="stop15" />
      <stop
         style="stop-color:#ffbe00;stop-opacity:0.50207472;"
         offset="1"
         id="stop16" />
    </linearGradient>
    <linearGradient
       id="linearGradient13"
       inkscape:collect="always">
      <stop
         style="stop-color:#ff3500;stop-opacity:1;"
         offset="0"
         id="stop13" />
      <stop
         style="stop-color:#ffbe00;stop-opacity:0.49792531;"
         offset="1"
         id="stop14" />
    </linearGradient>
    <linearGradient
       id="linearGradient11"
       inkscape:collect="always">
      <stop
         style="stop-color:#ffffff;stop-opacity:0;"
         offset="0"
         id="stop12" />
      <stop
         style="stop-color:#ffffff;stop-opacity:1;"
         offset="1"
         id="stop11" />
    </linearGradient>
    <linearGradient
       id="linearGradient9"
       inkscape:collect="always">
      <stop
         style="stop-color:#ffffff;stop-opacity:0;"
         offset="0"
         id="stop10" />
      <stop
         style="stop-color:#ffffff;stop-opacity:1;"
         offset="1"
         id="stop9" />
    </linearGradient>
    <linearGradient
       id="linearGradient7"
       inkscape:collect="always">
      <stop
         style="stop-color:#ffffff;stop-opacity:0;"
         offset="0"
         id="stop8" />
      <stop
         style="stop-color:#ffffff;stop-opacity:1;"
         offset="1"
         id="stop7" />
    </linearGradient>
    <linearGradient
       inkscape:collect="always"
       xlink:href="#linearGradient7"
       id="linearGradient8"
       x1="2.6732826"
       y1="52.916656"
       x2="10.555883"
       y2="52.916656"
       gradientUnits="userSpaceOnUse" />
    <linearGradient
       inkscape:collect="always"
       xlink:href="#linearGradient9"
       id="linearGradient10"
       x1="2.6458332"
       y1="26.458333"
       x2="10.528434"
       y2="26.458333"
       gradientUnits="userSpaceOnUse" />
    <linearGradient
       inkscape:collect="always"
       xlink:href="#linearGradient11"
       id="linearGradient12"
       x1="2.6732826"
       y1="79.374988"
       x2="10.555883"
       y2="79.374988"
       gradientUnits="userSpaceOnUse" />
    <linearGradient
       inkscape:collect="always"
       xlink:href="#linearGradient16"
       id="linearGradient14"
       x1="59.531249"
       y1="26.458333"
       x2="67.468747"
       y2="26.458333"
       gradientUnits="userSpaceOnUse" />
    <linearGradient
       inkscape:collect="always"
       xlink:href="#linearGradient13"
       id="linearGradient14-4"
       x1="59.531246"
       y1="79.374992"
       x2="67.468742"
       y2="79.374992"
       gradientUnits="userSpaceOnUse"
       gradientTransform="translate(1.0535237e-6)" />
    <linearGradient
       inkscape:collect="always"
       xlink:href="#linearGradient18"
       id="linearGradient14-4-4"
       x1="95.249992"
       y1="52.916664"
       x2="103.18749"
       y2="52.916664"
       gradientUnits="userSpaceOnUse" />
    <linearGradient
       inkscape:collect="always"
       xlink:href="#linearGradient23"
       id="linearGradient24"
       x1="70.114586"
       y1="26.458334"
       x2="104.51042"
       y2="26.458334"
       gradientUnits="userSpaceOnUse" />
    <linearGradient
       inkscape:collect="always"
       xlink:href="#linearGradient23"
       id="linearGradient24-7"
       x1="70.114586"
       y1="26.458334"
       x2="104.51042"
       y2="26.458334"
       gradientUnits="userSpaceOnUse" />
  </defs>
  <g
     inkscape:label="Layer 1"
     inkscape:groupmode="layer"
     id="layer1">
    <rect
       style="fill:#010015;fill-opacity:1;stroke-width:0.499999;paint-order:stroke fill markers"
       id="rect8"
       width="105.83333"
       height="105.83333"
       x="0"
       y="-1.1920929e-06"
       ry="1.4351515e-16" />
    <path
       style="font-weight:800;font-stretch:expanded;font-size:14.4977px;line-height:1.9;font-family:'Monaspace Krypton Var';-inkscape-font-specification:'Monaspace Krypton Var Ultra-Bold Expanded';letter-spacing:0.226528px;fill:#ffffff;stroke-width:0.5;paint-order:stroke fill markers"
       d="M 13.229165,31.749987 V 21.166666 h 1.399028 v 10.583321 z m 7.640288,0 h -6.842914 v -1.188812 h 7.009638 z M 19.6299,27.023737 H 14.099027 V 25.892916 H 19.6299 Z m -5.603361,-4.66826 v -1.188811 h 6.574707 l 0.173972,1.188811 z m 13.687645,-1.188811 h 1.406276 v 10.583321 h -1.406276 z m -3.399711,9.394509 h 8.299933 l -0.144977,1.188812 H 24.45945 Z m 0.144977,-9.394509 h 8.009979 l 0.144977,1.188811 h -8.299933 z m 18.239923,8.908836 -4.255075,-3.298226 0.724885,0.166723 h -2.167406 v -1.159816 h 2.210899 l -0.666894,0.231963 4.226079,-3.102507 v -1.746973 h 1.413526 v 2.160157 l -4.559527,3.356218 0.03624,-0.69589 4.523282,3.602678 v 2.160158 h -1.486014 z m -6.770426,-8.908836 h 1.428023 v 10.583321 h -1.428023 z m 10.853343,6.697937 v -2.863296 l 3.573683,-3.834641 h 2.196402 l 3.588181,3.834641 v 2.863296 l -3.559186,3.885384 h -2.225397 z m 5.132186,2.602337 2.834301,-3.102508 V 25.501478 L 51.914476,22.449712 H 51.00837 l -2.8343,3.051766 v 1.862954 l 2.8343,3.102508 z"
       id="text7"
       aria-label="EIKO" />
    <path
       style="font-weight:800;font-stretch:expanded;font-size:14.4977px;line-height:1.9;font-family:'Monaspace Krypton Var';-inkscape-font-specification:'Monaspace Krypton Var Ultra-Bold Expanded';letter-spacing:0.226528px;fill:#ffffff;stroke-width:0.5;paint-order:stroke fill markers"
       d="m 13.229166,80.795763 v -2.892291 l 3.414208,-3.820144 h 4.929218 l 0.18847,1.2613 h -4.4073 l -2.725568,3.015521 v 1.978936 l 2.725568,3.066264 h 4.4073 l -0.18847,1.2613 h -4.929218 z m 12.353857,-6.712435 h 1.406276 v 10.583321 h -1.406276 z m 0.797373,9.394509 h 7.103873 l -0.166724,1.188812 h -6.937149 z m 10.157455,-0.703138 v -8.691371 h 1.413526 v 8.198449 l 0.964097,1.19606 h 3.486697 l 0.964097,-1.19606 v -8.198449 h 1.420774 v 8.691371 l -1.551254,1.89195 h -5.153932 z m 12.121892,0.826369 h 4.943716 l 1.725226,-1.370033 V 81.158206 L 53.603459,79.74468 h -4.943716 v -1.065581 h 4.943716 l 1.435272,-1.377282 v -0.811871 l -1.435272,-1.341037 h -4.943716 v -1.065581 h 5.61061 l 2.036927,1.942692 v 1.717977 l -2.044176,1.797715 v -0.761129 l 2.457361,1.935443 v 1.978936 l -2.450112,1.971687 h -5.61061 z m -0.521917,-9.51774 h 1.420775 v 10.583321 h -1.420775 z"
       id="text7-38"
       aria-label="CLUB" />
    <path
       style="font-weight:800;font-stretch:expanded;font-size:14.4977px;line-height:1.9;font-family:'Monaspace Krypton Var';-inkscape-font-specification:'Monaspace Krypton Var Ultra-Bold Expanded';letter-spacing:0.226529px;fill:#ffffff;stroke-width:0.5;paint-order:stroke fill markers"
       d="m 13.751083,53.235606 h 5.182928 l 1.862955,-1.732475 v -1.297544 l -1.812213,-1.370033 h -5.23367 v -1.210558 h 5.857071 l 2.580591,2.109415 v 2.225397 l -2.609586,2.341379 h -5.828076 z m -0.521917,-5.61061 h 1.420775 v 10.583321 h -1.420775 z m 18.442892,0 h 1.428023 v 10.583321 h -1.428023 z m -6.821168,0 h 1.420774 V 58.208317 H 24.85089 Z m 0.659645,4.559527 h 6.929901 v 1.145318 h -6.929901 z m 10.773608,-1.710729 v -2.848798 h 1.420775 v 2.406618 l 2.96478,3.189494 h -0.369692 l 2.957531,-3.167747 v -2.428365 h 1.399028 v 2.848798 l -3.486697,3.7839 h -1.391779 z m 3.486697,3.051766 h 1.406277 v 4.682757 H 39.77084 Z m 8.236511,3.479448 h 5.23367 l 1.159816,-1.32654 v -0.550912 l -6.320998,-3.885384 v -1.471516 l 1.913697,-2.14566 h 5.494628 l 0.166724,1.203309 h -4.97996 l -1.167065,1.32654 v 0.550912 l 6.320997,3.885384 v 1.471516 l -1.920945,2.14566 h -5.73384 z m 14.709734,-9.380012 h 1.406277 v 10.583321 h -1.406277 z m -3.399711,9.394509 h 8.299933 l -0.144977,1.188812 h -8.009979 z m 0.144977,-9.394509 h 8.009979 l 0.144977,1.188811 h -8.299933 z m 11.070811,6.712435 V 51.44514 l 3.414208,-3.820144 h 4.929218 l 0.18847,1.2613 h -4.4073 l -2.725568,3.015521 v 1.978936 l 2.725568,3.066264 h 4.4073 l -0.18847,1.2613 H 73.94737 Z m 11.969669,2.667577 H 87.7365 l 1.159816,-1.32654 v -0.550912 l -6.320997,-3.885384 v -1.471516 l 1.913696,-2.14566 h 5.494629 l 0.166723,1.203309 h -4.97996 l -1.167065,1.32654 v 0.550912 l 6.320998,3.885384 v 1.471516 l -1.920946,2.14566 h -5.73384 z"
       id="text7-3"
       aria-label="PHYSICS" />
    <path
       style="fill:url(#linearGradient10);fill-opacity:1;stroke-width:0.499999;paint-order:stroke fill markers"
       d="m 2.6458332,22.489583 v 7.9375 l 7.8826008,-3.968756 z"
       id="path7" />
    <path
       style="fill:url(#linearGradient8);fill-opacity:1;stroke-width:0.499999;paint-order:stroke fill markers"
       d="m 2.6732826,48.947906 v 7.9375 L 10.555883,52.91665 Z"
       id="path7-1" />
    <path
       style="fill:url(#linearGradient12);fill-opacity:1;stroke-width:0.499999;paint-order:stroke fill markers"
       d="m 2.6732826,75.406238 v 7.9375 l 7.8826004,-3.968756 z"
       id="path7-1-5" />
    <path
       style="fill:url(#linearGradient14);fill-opacity:1;stroke-width:0.499999;paint-order:stroke fill markers"
       d="m 59.531249,26.458332 7.937498,3.968751 v -7.9375 z"
       id="path12" />
    <path
       style="fill:url(#linearGradient14-4);fill-opacity:1;stroke-width:0.499999;paint-order:stroke fill markers"
       d="m 59.531248,79.374995 7.937498,3.968751 v -7.9375 z"
       id="path12-9" />
    <path
       style="fill:url(#linearGradient14-4-4);fill-opacity:1;stroke-width:0.499999;paint-order:stroke fill markers"
       d="m 95.249997,52.916663 7.937493,3.968751 v -7.9375 z"
       id="path12-9-4" />
    <path
       id="rect22"
       style="fill:url(#linearGradient24);stroke-width:0.499999;paint-order:stroke fill markers"
       d="m 70.114586,23.812498 34.395824,1.322917 v 0 l 1e-5,3.96875 -1e-5,-1.322916 -34.395824,1.322916 v 0 z"
       sodipodi:nodetypes="cccccccc" />
    <path
       id="rect22-7"
       style="fill:url(#linearGradient24-7);stroke-width:0.499999;paint-order:stroke fill markers"
       d="m 70.279529,76.729163 34.395821,1.322917 v 0 l 1e-5,3.96875 -1e-5,-1.322916 -34.395821,1.322916 v 0 z"
       sodipodi:nodetypes="cccccccc" />
  </g>
</svg>
